<svg version="1.1" id="Layer_1" xmlns="http://www.w3.org/2000/svg" xmlns:xlink="http://www.w3.org/1999/xlink" x="0px" y="0px" width="100%" viewBox="0 0 500 500" enable-background="new 0 0 500 500" xml:space="preserve">
   <path fill="#000000" opacity="1.000000" stroke="none" d="M276.000000,501.000000 C184.000015,501.000000 92.500046,501.000000 1.000049,501.000000 C1.000033,334.333405 1.000033,167.666794 1.000016,1.000139 C167.666565,1.000092 334.333130,1.000092 500.999756,1.000046 C500.999847,167.666519 500.999847,334.333038 500.999939,500.999786 C426.166656,501.000000 351.333344,501.000000 276.000000,501.000000 M416.308136,365.159088 C416.537628,367.051575 416.767120,368.944031 417.040497,371.198456 C462.785309,310.243134 471.317780,220.339890 426.699188,146.195023 C379.873627,68.382668 290.847809,31.398436 201.585342,53.321815 C117.779327,73.905052 53.025898,146.773117 47.298859,238.051010 C41.871841,324.547028 89.617561,392.615356 140.462280,422.702118 C145.171707,408.899902 149.032150,394.578735 154.882401,381.122650 C164.407593,359.213928 175.383835,337.940125 185.400467,316.238068 C187.803024,311.032684 189.320007,305.286072 190.372025,299.626282 C191.465134,293.745483 188.431656,290.072845 182.506409,289.020264 C179.409348,288.470093 176.226166,288.303406 173.073563,288.184906 C160.489258,287.711914 148.861664,284.335907 138.376907,277.208740 C119.870956,264.629028 110.575523,246.061798 104.140854,225.448090 C100.964638,215.272934 105.570427,211.108017 112.282028,205.852478 C117.279640,201.939087 122.104729,197.453934 125.855164,192.373413 C133.350266,182.220169 139.702377,171.224747 147.168488,161.048126 C158.507523,145.592545 173.356720,136.267563 193.289246,136.511749 C195.309296,136.536484 197.934326,134.937729 199.292450,133.282974 C206.685089,124.275787 213.761169,115.009026 220.961624,105.843735 C224.064301,101.894386 227.204163,97.974243 230.528580,93.787125 C231.259705,95.090340 231.729691,95.783348 232.059738,96.537582 C239.712234,114.025253 247.299622,131.541733 255.045837,148.987701 C256.155457,151.486755 257.755920,153.887604 259.586273,155.922928 C263.916626,160.738281 268.956146,164.965134 272.939850,170.034332 C288.909180,190.354889 297.159790,214.180389 302.950012,238.936417 C315.014099,290.516174 315.659241,342.907410 313.463196,395.464294 C313.098053,404.203583 312.478119,412.932281 311.961884,421.909698 C316.382660,420.829803 320.289429,420.024597 324.108398,418.916656 C340.352386,414.204041 355.925537,407.905243 368.927155,396.812286 C379.020996,388.200226 385.777466,377.769989 381.866791,363.534576 C378.386627,350.866089 371.455994,339.917358 364.608124,328.877289 C353.579712,311.097443 342.205383,293.473816 332.296051,275.073944 C321.429840,254.897202 317.285095,233.103424 323.083374,210.359573 C330.091583,182.869919 347.451233,161.913406 367.296906,142.816040 C369.747284,140.458069 374.649353,139.524399 378.293030,139.767105 C385.559174,140.251114 390.331360,145.006332 392.864349,151.722427 C395.406097,158.461746 392.929474,164.001587 388.330078,169.018112 C382.029175,175.890518 375.500732,182.601227 369.730530,189.903351 C358.556793,204.043640 350.986420,219.691086 355.164734,238.318436 C356.998505,246.493530 359.640045,254.836273 363.712250,262.094421 C375.496582,283.098236 388.118683,303.635071 400.558838,324.266663 C408.079834,336.740021 414.639221,349.532745 416.308136,365.159088 z"/>
   <path fill="#FEFEFE" opacity="1.000000" stroke="none" d="M416.263733,364.731201 C414.639221,349.532745 408.079834,336.740021 400.558838,324.266663 C388.118683,303.635071 375.496582,283.098236 363.712250,262.094421 C359.640045,254.836273 356.998505,246.493530 355.164734,238.318436 C350.986420,219.691086 358.556793,204.043640 369.730530,189.903351 C375.500732,182.601227 382.029175,175.890518 388.330078,169.018112 C392.929474,164.001587 395.406097,158.461746 392.864349,151.722427 C390.331360,145.006332 385.559174,140.251114 378.293030,139.767105 C374.649353,139.524399 369.747284,140.458069 367.296906,142.816040 C347.451233,161.913406 330.091583,182.869919 323.083374,210.359573 C317.285095,233.103424 321.429840,254.897202 332.296051,275.073944 C342.205383,293.473816 353.579712,311.097443 364.608124,328.877289 C371.455994,339.917358 378.386627,350.866089 381.866791,363.534576 C385.777466,377.769989 379.020996,388.200226 368.927155,396.812286 C355.925537,407.905243 340.352386,414.204041 324.108398,418.916656 C320.289429,420.024597 316.382660,420.829803 311.961884,421.909698 C312.478119,412.932281 313.098053,404.203583 313.463196,395.464294 C315.659241,342.907410 315.014099,290.516174 302.950012,238.936417 C297.159790,214.180389 288.909180,190.354889 272.939850,170.034332 C268.956146,164.965134 263.916626,160.738281 259.586273,155.922928 C257.755920,153.887604 256.155457,151.486755 255.045837,148.987701 C247.299622,131.541733 239.712234,114.025253 232.059738,96.537582 C231.729691,95.783348 231.259705,95.090340 230.528580,93.787125 C227.204163,97.974243 224.064301,101.894386 220.961624,105.843735 C213.761169,115.009026 206.685089,124.275787 199.292450,133.282974 C197.934326,134.937729 195.309296,136.536484 193.289246,136.511749 C173.356720,136.267563 158.507523,145.592545 147.168488,161.048126 C139.702377,171.224747 133.350266,182.220169 125.855164,192.373413 C122.104729,197.453934 117.279640,201.939087 112.282028,205.852478 C105.570427,211.108017 100.964638,215.272934 104.140854,225.448090 C110.575523,246.061798 119.870956,264.629028 138.376907,277.208740 C148.861664,284.335907 160.489258,287.711914 173.073563,288.184906 C176.226166,288.303406 179.409348,288.470093 182.506409,289.020264 C188.431656,290.072845 191.465134,293.745483 190.372025,299.626282 C189.320007,305.286072 187.803024,311.032684 185.400467,316.238068 C175.383835,337.940125 164.407593,359.213928 154.882401,381.122650 C149.032150,394.578735 145.171707,408.899902 140.462280,422.702118 C89.617561,392.615356 41.871841,324.547028 47.298859,238.051010 C53.025898,146.773117 117.779327,73.905052 201.585342,53.321815 C290.847809,31.398436 379.873627,68.382668 426.699188,146.195023 C471.317780,220.339890 462.785309,310.243134 417.040497,371.198456 C416.767120,368.944031 416.537628,367.051575 416.263733,364.731201 z"/>
</svg>
